<svg xmlns="http://www.w3.org/2000/svg" viewBox="0 0 1200 720"><rect width="1200" height="720" fill="#e7efe9"/><g stroke="#c7d7cd"><path d="M0 120h1200M0 240h1200M0 360h1200M0 480h1200M0 600h1200"/><path d="M200 0v720M400 0v720M600 0v720M800 0v720M1000 0v720"/></g><path d="M310 360h180M710 360h180" stroke="#477a68" stroke-width="8"/><g fill="#fff" stroke="#9bb5a7" stroke-width="3"><rect x="90" y="245" width="220" height="230" rx="32"/><rect x="490" y="205" width="220" height="310" rx="32"/><rect x="890" y="245" width="220" height="230" rx="32"/></g><g fill="#176b57"><circle cx="200" cy="330" r="28"/><rect x="145" y="390" width="110" height="14" rx="7"/><circle cx="600" cy="305" r="28"/><rect x="545" y="365" width="110" height="14" rx="7"/><circle cx="1000" cy="330" r="28"/></g></svg>
